<?xml version='1.0' encoding='utf-8'?>
<svg xmlns="http://www.w3.org/2000/svg" width="1e3" height="642.35" version="1.1" viewBox="0 0 264.58 169.95"> <g transform="translate(-130.78 -122.06)"> <path d="m284 122.06a57.912 57.912 0 0 0-47.408 24.703 43.709 43.709 0 0 0-15.591-2.928 43.709 43.709 0 0 0-43.709 43.709 43.709 43.709 0 0 0 0.25 4.256 50.165 50.165 0 0 0-46.766 50.045 50.165 50.165 0 0 0 49.657 50.139l-0.022 0.03h157.04a57.912 57.912 0 0 0 57.912-57.912 57.912 57.912 0 0 0-53.596-57.695 57.912 57.912 0 0 0-57.785-54.342z" clip-rule="nonzero" color="#000000" color-rendering="auto" enable-background="accumulate" fill="#59f" fill-rule="nonzero" image-rendering="auto" shape-rendering="auto" solid-color="#000000" style="isolation:auto;mix-blend-mode:normal"/> </g> </svg>