<?xml version="1.0" encoding="utf-8"?>
<svg xmlns="http://www.w3.org/2000/svg" fill="none" height="78" viewBox="0 0 254 78" width="254">
<path d="M1.23535 13.3333C1.23535 5.96954 7.20489 0 14.5687 0H35.902C43.2658 0 49.2354 5.96954 49.2354 13.3333V34.6667C49.2354 42.0305 43.2658 48 35.902 48H14.5687C7.20489 48 1.23535 42.0305 1.23535 34.6667V13.3333Z" fill="white"/>
<path d="M14.5684 0.400391H35.9023C43.045 0.400567 48.8348 6.19038 48.835 13.333V34.667C48.8348 41.8096 43.045 47.5994 35.9023 47.5996H14.5684C7.42574 47.5994 1.63592 41.8096 1.63574 34.667V13.333C1.63592 6.19038 7.42574 0.400567 14.5684 0.400391Z" stroke="#9CA3AF" stroke-opacity="0.3" stroke-width="0.8"/>
<path d="M19.0713 13.3332C19.6169 13.3333 20.1475 13.5017 20.584 13.8127L23.623 15.8566C24.0098 16.1322 24.4804 16.3195 24.9639 16.3195H34.124C36.5788 16.3195 38.5693 18.31 38.5693 20.7648V30.2218C38.5693 32.6766 36.5788 34.6662 34.124 34.6662H16.3467C13.8921 34.6659 11.9024 32.6764 11.9023 30.2218V15.7297C11.9024 14.4061 13.0317 13.3332 14.4248 13.3332H19.0713Z" fill="#D9D9D9"/>
<path d="M19.0713 13.3332C19.6169 13.3333 20.1475 13.5017 20.584 13.8127L23.623 15.8566C24.0098 16.1322 24.4804 16.3195 24.9639 16.3195H34.124C36.5788 16.3195 38.5693 18.31 38.5693 20.7648V30.2218C38.5693 32.6766 36.5788 34.6662 34.124 34.6662H16.3467C13.8921 34.6659 11.9024 32.6764 11.9023 30.2218V15.7297C11.9024 14.4061 13.0317 13.3332 14.4248 13.3332H19.0713Z" fill="url(#paint0_linear_25219_10396)"/>
<path d="M25.2354 16.3199H31.902V22.9865H25.2354V16.3199Z" fill="white" fill-opacity="0.4"/>
<path d="M31.9014 16.3199H34.1236C36.5782 16.3199 38.568 18.3097 38.568 20.7643V22.9865H31.9014V16.3199Z" fill="white" fill-opacity="0.7"/>
<path d="M31.9014 22.9865H38.568V29.6532H31.9014V22.9865Z" fill="white" fill-opacity="0.4"/>
<path d="M6.00524 64.3636C5.88592 63.3594 4.95126 62.7727 3.71831 62.7727C2.36603 62.7727 1.47115 63.4886 1.47115 64.4631C1.47115 65.5568 2.68422 65.9545 3.4399 66.1534L4.47399 66.4318C5.52797 66.7102 7.33762 67.3267 7.33762 69.2358C7.33762 70.8864 6.00524 72.179 3.65865 72.179C1.47115 72.179 0.118874 71.0455 -0.000443868 69.375H1.27228C1.37172 70.5284 2.44558 71.0653 3.65865 71.0653C5.07058 71.0653 6.14444 70.3295 6.14444 69.2159C6.14444 68.2017 5.1899 67.8239 4.11603 67.5256L2.86319 67.1676C1.27228 66.7102 0.277965 65.8949 0.277965 64.5227C0.277965 62.8125 1.80922 61.679 3.75808 61.679C5.72683 61.679 7.14373 62.8274 7.19842 64.3636H6.00524ZM12.5267 64.3636V65.358H10.896V69.8125C10.896 70.8068 11.3932 70.9659 11.9102 70.9659C12.1688 70.9659 12.3279 70.9261 12.4273 70.9062L12.6659 71.9602C12.5068 72.0199 12.2284 72.0994 11.7909 72.0994C10.7966 72.0994 9.72275 71.4631 9.72275 70.1307V65.358H8.56934V64.3636H9.72275V62.5341H10.896V64.3636H12.5267ZM17.3119 72.1591C15.2437 72.1591 13.8517 70.5881 13.8517 68.2216C13.8517 65.8352 15.2437 64.2642 17.3119 64.2642C19.3801 64.2642 20.7721 65.8352 20.7721 68.2216C20.7721 70.5881 19.3801 72.1591 17.3119 72.1591ZM17.3119 71.1051C18.8829 71.1051 19.5988 69.7528 19.5988 68.2216C19.5988 66.6903 18.8829 65.3182 17.3119 65.3182C15.7409 65.3182 15.0249 66.6903 15.0249 68.2216C15.0249 69.7528 15.7409 71.1051 17.3119 71.1051ZM22.5631 72V64.3636H23.6966V65.517H23.7762C24.0546 64.7614 24.8501 64.2443 25.7648 64.2443C25.9388 64.2443 26.2471 64.2543 26.3813 64.2642V65.4574C26.3018 65.4375 25.9786 65.3778 25.6654 65.3778C24.5518 65.3778 23.7364 66.1335 23.7364 67.1676V72H22.5631ZM30.0193 72.179C28.5676 72.179 27.4142 71.3239 27.4142 69.8324C27.4142 68.0824 28.9603 67.7692 30.3772 67.5852C31.7693 67.4062 32.346 67.456 32.346 66.8892V66.8494C32.346 65.87 31.814 65.2983 30.7352 65.2983C29.6166 65.2983 29.0051 65.8949 28.7465 66.4517L27.6329 66.054C28.2295 64.6619 29.542 64.2642 30.6954 64.2642C31.6698 64.2642 33.5193 64.5426 33.5193 66.9688V72H32.346V70.9659H32.2863C32.0477 71.4631 31.3517 72.179 30.0193 72.179ZM30.1982 71.125C31.5903 71.125 32.346 70.1903 32.346 69.2358V68.1619C32.1471 68.4006 30.8147 68.5398 30.3176 68.5994C29.4028 68.7188 28.5874 68.9972 28.5874 69.892C28.5874 70.7074 29.2636 71.125 30.1982 71.125ZM38.7432 75.0227C37.0379 75.0227 36.0983 74.2919 35.621 73.4915L36.5557 72.8352C36.8689 73.2578 37.3561 73.9886 38.7432 73.9886C39.9761 73.9886 40.871 73.4119 40.871 72.1392V70.5881H40.7716C40.5131 71.0057 40.0358 71.8807 38.5443 71.8807C36.6949 71.8807 35.3028 70.5284 35.3028 68.142C35.3028 65.7955 36.6352 64.2642 38.5642 64.2642C40.0557 64.2642 40.5329 65.179 40.7915 65.5767H40.9108V64.3636H42.0443V72.2188C42.0443 74.1875 40.5727 75.0227 38.7432 75.0227ZM38.7034 70.8267C40.1153 70.8267 40.8909 69.8125 40.8909 68.1222C40.8909 66.4716 40.1352 65.3182 38.7034 65.3182C37.2119 65.3182 36.4761 66.571 36.4761 68.1222C36.4761 69.7131 37.2318 70.8267 38.7034 70.8267ZM47.3937 72.1591C45.1863 72.1591 43.8341 70.5881 43.8341 68.2415C43.8341 65.8949 45.2062 64.2642 47.2744 64.2642C48.8653 64.2642 50.5557 65.2386 50.5557 68.0824V68.5795H45.0123C45.067 70.2152 46.0166 71.1051 47.3937 71.1051C48.3135 71.1051 49.0045 70.7074 49.3028 69.9119L50.4363 70.2301C50.0784 71.3835 48.9449 72.1591 47.3937 72.1591ZM45.0123 67.5653H49.3625C49.3625 66.2727 48.5471 65.3182 47.2744 65.3182C45.9321 65.3182 45.0919 66.3771 45.0123 67.5653Z" fill="#4B5563"/>
<path d="M69.2354 13.3333C69.2354 5.96954 75.2049 0 82.5687 0H103.902C111.266 0 117.235 5.96954 117.235 13.3333V34.6667C117.235 42.0305 111.266 48 103.902 48H82.5687C75.2049 48 69.2354 42.0305 69.2354 34.6667V13.3333Z" fill="white"/>
<path d="M82.5684 0.400391H103.902C111.045 0.400567 116.835 6.19038 116.835 13.333V34.667C116.835 41.8096 111.045 47.5994 103.902 47.5996H82.5684C75.4257 47.5994 69.6359 41.8096 69.6357 34.667V13.333C69.6359 6.19038 75.4257 0.400567 82.5684 0.400391Z" stroke="#9CA3AF" stroke-opacity="0.3" stroke-width="0.8"/>
<path d="M101.996 10.667H84.5253C81.9861 10.667 79.9277 12.7254 79.9277 15.2646V32.7357C79.9277 35.2749 81.9861 37.3333 84.5253 37.3333H101.996C104.535 37.3333 106.594 35.2749 106.594 32.7357V15.2646C106.594 12.7254 104.535 10.667 101.996 10.667Z" fill="url(#paint1_linear_25219_10396)"/>
<path d="M99.9746 10.6665H101.998C104.535 10.6665 106.595 12.7267 106.595 15.2642V17.2871H99.9746V10.6665Z" fill="white" opacity="0.6"/>
<path d="M99.9711 10.6665H93.3506V17.2871H99.9711V10.6665Z" fill="white" opacity="0.4"/>
<path d="M106.595 17.2873H99.9746V23.9079H106.595V17.2873Z" fill="white" opacity="0.4"/>
<path d="M87.4792 27.8976C88.0631 27.0258 88.3392 27.0215 88.9499 27.8747L90.5134 30.0589C91.1635 30.9671 91.4261 30.9712 92.1042 30.0837L93.0125 28.8949C93.6171 28.1037 93.8556 28.1086 94.4272 28.924L96.8158 32.3317C96.8916 32.4399 96.9009 32.5812 96.84 32.6983C96.7791 32.8154 96.658 32.8889 96.526 32.8889H84.7993C84.6686 32.8889 84.5486 32.8169 84.487 32.7016C84.4255 32.5863 84.4325 32.4465 84.5052 32.3379L87.4792 27.8976ZM91.5054 25.1028C91.5054 25.7627 90.9704 26.2977 90.3105 26.2977C89.6506 26.2977 89.1156 25.7627 89.1156 25.1028C89.1156 24.4429 89.6506 23.9079 90.3105 23.9079C90.9704 23.9079 91.5054 24.4429 91.5054 25.1028Z" fill="white"/>
<path d="M71.3765 72V61.8182H74.8169C77.2082 61.8182 78.2771 63.2401 78.2771 65.0398C78.2771 66.8395 77.2082 68.2812 74.8367 68.2812H72.6095V72H71.3765ZM72.6095 67.1875H74.797C76.4326 67.1875 77.064 66.2628 77.064 65.0398C77.064 63.8168 76.4326 62.9119 74.7771 62.9119H72.6095V67.1875ZM81.2774 67.4062V72H80.1041V61.8182H81.2774V65.5568H81.3769C81.7348 64.7663 82.4209 64.2642 83.624 64.2642C85.1851 64.2642 86.2291 65.1839 86.2291 67.1477V72H85.0558V67.2273C85.0558 66.0142 84.3896 65.3182 83.286 65.3182C82.1276 65.3182 81.2774 66.0739 81.2774 67.4062ZM91.4779 72.1591C89.4097 72.1591 88.0177 70.5881 88.0177 68.2216C88.0177 65.8352 89.4097 64.2642 91.4779 64.2642C93.5461 64.2642 94.9381 65.8352 94.9381 68.2216C94.9381 70.5881 93.5461 72.1591 91.4779 72.1591ZM91.4779 71.1051C93.0489 71.1051 93.7648 69.7528 93.7648 68.2216C93.7648 66.6903 93.0489 65.3182 91.4779 65.3182C89.9069 65.3182 89.191 66.6903 89.191 68.2216C89.191 69.7528 89.9069 71.1051 91.4779 71.1051ZM100.05 64.3636V65.358H98.4195V69.8125C98.4195 70.8068 98.9166 70.9659 99.4337 70.9659C99.6922 70.9659 99.8513 70.9261 99.9507 70.9062L100.189 71.9602C100.03 72.0199 99.7519 72.0994 99.3144 72.0994C98.32 72.0994 97.2462 71.4631 97.2462 70.1307V65.358H96.0928V64.3636H97.2462V62.5341H98.4195V64.3636H100.05ZM104.835 72.1591C102.767 72.1591 101.375 70.5881 101.375 68.2216C101.375 65.8352 102.767 64.2642 104.835 64.2642C106.903 64.2642 108.296 65.8352 108.296 68.2216C108.296 70.5881 106.903 72.1591 104.835 72.1591ZM104.835 71.1051C106.406 71.1051 107.122 69.7528 107.122 68.2216C107.122 66.6903 106.406 65.3182 104.835 65.3182C103.264 65.3182 102.548 66.6903 102.548 68.2216C102.548 69.7528 103.264 71.1051 104.835 71.1051ZM115.496 66.0739L114.442 66.3722C114.238 65.8452 113.815 65.2784 112.791 65.2784C111.856 65.2784 111.16 65.7557 111.16 66.4119C111.16 66.9986 111.568 67.3018 112.473 67.5256L113.606 67.804C114.969 68.1371 115.635 68.8082 115.635 69.8722C115.635 71.1896 114.427 72.1591 112.652 72.1591C111.091 72.1591 110.022 71.468 109.748 70.1705L110.862 69.892C111.071 70.7124 111.672 71.125 112.632 71.125C113.726 71.125 114.422 70.5881 114.422 69.9318C114.422 69.4048 114.059 69.0369 113.288 68.858L112.016 68.5597C110.614 68.2315 109.987 67.5256 109.987 66.4716C109.987 65.179 111.18 64.2642 112.791 64.2642C114.302 64.2642 115.128 64.9901 115.496 66.0739Z" fill="#4B5563"/>
<path d="M137.235 13.3333C137.235 5.96954 143.205 0 150.569 0H171.902C179.266 0 185.235 5.96954 185.235 13.3333V34.6667C185.235 42.0305 179.266 48 171.902 48H150.569C143.205 48 137.235 42.0305 137.235 34.6667V13.3333Z" fill="white"/>
<path d="M150.568 0.299805H171.902C179.1 0.299982 184.935 6.13516 184.936 13.333V34.667C184.935 41.8648 179.1 47.7 171.902 47.7002H150.568C143.371 47.7 137.535 41.8648 137.535 34.667V13.333C137.535 6.13516 143.371 0.299981 150.568 0.299805Z" stroke="#9CA3AF" stroke-opacity="0.3" stroke-width="0.6"/>
<path d="M147.902 15.1111C147.902 12.6565 149.892 10.6667 152.347 10.6667H170.125C172.579 10.6667 174.569 12.6565 174.569 15.1111V32.8889C174.569 35.3435 172.579 37.3333 170.125 37.3333H152.347C149.892 37.3333 147.902 35.3435 147.902 32.8889V15.1111Z" fill="url(#paint2_radial_25219_10396)"/>
<path d="M161.235 10.6667H167.902V17.3333H161.235V10.6667Z" fill="#85D4F5"/>
<path d="M167.901 10.6667H170.124C172.578 10.6667 174.568 12.6565 174.568 15.1111V17.3333H167.901V10.6667Z" fill="#D6F1FC"/>
<path d="M167.901 17.3333H174.568V24H167.901V17.3333Z" fill="#85D4F5"/>
<path clip-rule="evenodd" d="M162.347 31.7778C162.347 32.3914 161.849 32.8889 161.236 32.8889H153.458C152.844 32.8889 152.347 32.3914 152.347 31.7778C152.347 31.1641 152.844 30.6667 153.458 30.6667H161.236C161.849 30.6667 162.347 31.1641 162.347 31.7778Z" fill="white" fill-rule="evenodd"/>
<path clip-rule="evenodd" d="M159.013 27.3325C159.013 27.9462 158.516 28.4436 157.902 28.4436H153.458C152.844 28.4436 152.347 27.9462 152.347 27.3325C152.347 26.7189 152.844 26.2214 153.458 26.2214H157.902C158.516 26.2214 159.013 26.7189 159.013 27.3325Z" fill="white" fill-rule="evenodd"/>
<path d="M148.835 72H145.693V61.8182H148.974C151.937 61.8182 153.687 63.7273 153.687 66.8892C153.687 70.071 151.937 72 148.835 72ZM146.926 70.9062H148.755C151.281 70.9062 152.494 69.375 152.494 66.8892C152.494 64.4233 151.281 62.9119 148.895 62.9119H146.926V70.9062ZM158.699 72.1591C156.63 72.1591 155.238 70.5881 155.238 68.2216C155.238 65.8352 156.63 64.2642 158.699 64.2642C160.767 64.2642 162.159 65.8352 162.159 68.2216C162.159 70.5881 160.767 72.1591 158.699 72.1591ZM158.699 71.1051C160.27 71.1051 160.986 69.7528 160.986 68.2216C160.986 66.6903 160.27 65.3182 158.699 65.3182C157.128 65.3182 156.412 66.6903 156.412 68.2216C156.412 69.7528 157.128 71.1051 158.699 71.1051ZM167.052 72.1591C164.904 72.1591 163.592 70.5085 163.592 68.2216C163.592 65.8949 164.964 64.2642 167.032 64.2642C168.643 64.2642 169.856 65.2188 170.055 66.6506H168.882C168.703 65.9545 168.086 65.3182 167.052 65.3182C165.68 65.3182 164.765 66.4517 164.765 68.1818C164.765 69.9517 165.66 71.1051 167.052 71.1051C167.967 71.1051 168.663 70.608 168.882 69.7727H170.055C169.856 71.125 168.742 72.1591 167.052 72.1591ZM177.179 66.0739L176.125 66.3722C175.921 65.8452 175.499 65.2784 174.475 65.2784C173.54 65.2784 172.844 65.7557 172.844 66.4119C172.844 66.9986 173.252 67.3018 174.157 67.5256L175.29 67.804C176.652 68.1371 177.318 68.8082 177.318 69.8722C177.318 71.1896 176.11 72.1591 174.335 72.1591C172.774 72.1591 171.706 71.468 171.432 70.1705L172.546 69.892C172.755 70.7124 173.356 71.125 174.316 71.125C175.409 71.125 176.105 70.5881 176.105 69.9318C176.105 69.4048 175.742 69.0369 174.972 68.858L173.699 68.5597C172.297 68.2315 171.671 67.5256 171.671 66.4716C171.671 65.179 172.864 64.2642 174.475 64.2642C175.986 64.2642 176.811 64.9901 177.179 66.0739Z" fill="#4B5563"/>
<path d="M205.235 13.3333C205.235 5.96954 211.205 0 218.569 0H239.902C247.266 0 253.235 5.96954 253.235 13.3333V34.6667C253.235 42.0305 247.266 48 239.902 48H218.569C211.205 48 205.235 42.0305 205.235 34.6667V13.3333Z" fill="white"/>
<path d="M218.568 0.299805H239.902C247.1 0.299982 252.935 6.13516 252.936 13.333V34.667C252.935 41.8648 247.1 47.7 239.902 47.7002H218.568C211.371 47.7 205.535 41.8648 205.535 34.667V13.333C205.535 6.13516 211.371 0.299981 218.568 0.299805Z" stroke="#9CA3AF" stroke-opacity="0.3" stroke-width="0.6"/>
<path d="M215.902 15.1111C215.902 12.6565 217.892 10.6667 220.347 10.6667H238.125C240.579 10.6667 242.569 12.6565 242.569 15.1111V32.8889C242.569 35.3435 240.579 37.3333 238.125 37.3333H220.347C217.892 37.3333 215.902 35.3435 215.902 32.8889V15.1111Z" fill="url(#paint3_radial_25219_10396)"/>
<path clip-rule="evenodd" d="M223.974 21.8069C224.592 21.8069 225.094 22.3083 225.094 22.9269L225.094 32.4202C225.094 33.0388 224.592 33.5402 223.974 33.5402C223.355 33.5402 222.854 33.0388 222.854 32.4202L222.854 22.9269C222.854 22.3083 223.355 21.8069 223.974 21.8069Z" fill="white" fill-rule="evenodd"/>
<path clip-rule="evenodd" d="M219.12 29.1136C219.12 28.495 219.621 27.9936 220.24 27.9936L230.8 27.9936C231.418 27.9936 231.92 28.495 231.92 29.1136C231.92 29.7321 231.418 30.2336 230.8 30.2336L220.24 30.2336C219.621 30.2336 219.12 29.7321 219.12 29.1136Z" fill="white" fill-rule="evenodd"/>
<path d="M229.235 10.6667H235.902V17.3333H229.235V10.6667Z" fill="white" fill-opacity="0.5"/>
<path d="M235.901 10.6667H238.124C240.578 10.6667 242.568 12.6565 242.568 15.1111V17.3333H235.901V10.6667Z" fill="white" fill-opacity="0.8"/>
<path d="M235.901 17.3333H242.568V24H235.901V17.3333Z" fill="white" fill-opacity="0.5"/>
<path d="M213.157 64.3636C213.037 63.3594 212.103 62.7727 210.87 62.7727C209.517 62.7727 208.623 63.4886 208.623 64.4631C208.623 65.5568 209.836 65.9545 210.591 66.1534L211.625 66.4318C212.679 66.7102 214.489 67.3267 214.489 69.2358C214.489 70.8864 213.157 72.179 210.81 72.179C208.623 72.179 207.27 71.0455 207.151 69.375H208.424C208.523 70.5284 209.597 71.0653 210.81 71.0653C212.222 71.0653 213.296 70.3295 213.296 69.2159C213.296 68.2017 212.341 67.8239 211.267 67.5256L210.015 67.1676C208.424 66.7102 207.429 65.8949 207.429 64.5227C207.429 62.8125 208.961 61.679 210.909 61.679C212.878 61.679 214.295 62.8274 214.35 64.3636H213.157ZM217.53 67.4062V72H216.357V61.8182H217.53V65.5568H217.63C217.988 64.7663 218.674 64.2642 219.877 64.2642C221.438 64.2642 222.482 65.1839 222.482 67.1477V72H221.309V67.2273C221.309 66.0142 220.643 65.3182 219.539 65.3182C218.381 65.3182 217.53 66.0739 217.53 67.4062ZM227.83 72.1591C225.623 72.1591 224.271 70.5881 224.271 68.2415C224.271 65.8949 225.643 64.2642 227.711 64.2642C229.302 64.2642 230.992 65.2386 230.992 68.0824V68.5795H225.449C225.504 70.2152 226.453 71.1051 227.83 71.1051C228.75 71.1051 229.441 70.7074 229.739 69.9119L230.873 70.2301C230.515 71.3835 229.381 72.1591 227.83 72.1591ZM225.449 67.5653H229.799C229.799 66.2727 228.984 65.3182 227.711 65.3182C226.369 65.3182 225.528 66.3771 225.449 67.5653ZM235.979 72.1591C233.771 72.1591 232.419 70.5881 232.419 68.2415C232.419 65.8949 233.791 64.2642 235.859 64.2642C237.45 64.2642 239.141 65.2386 239.141 68.0824V68.5795H233.597C233.652 70.2152 234.602 71.1051 235.979 71.1051C236.898 71.1051 237.589 70.7074 237.888 69.9119L239.021 70.2301C238.663 71.3835 237.53 72.1591 235.979 72.1591ZM233.597 67.5653H237.947C237.947 66.2727 237.132 65.3182 235.859 65.3182C234.517 65.3182 233.677 66.3771 233.597 67.5653ZM244.246 64.3636V65.358H242.616V69.8125C242.616 70.8068 243.113 70.9659 243.63 70.9659C243.888 70.9659 244.048 70.9261 244.147 70.9062L244.386 71.9602C244.227 72.0199 243.948 72.0994 243.511 72.0994C242.516 72.0994 241.442 71.4631 241.442 70.1307V65.358H240.289V64.3636H241.442V62.5341H242.616V64.3636H244.246ZM251.284 66.0739L250.23 66.3722C250.026 65.8452 249.603 65.2784 248.579 65.2784C247.645 65.2784 246.949 65.7557 246.949 66.4119C246.949 66.9986 247.356 67.3018 248.261 67.5256L249.395 67.804C250.757 68.1371 251.423 68.8082 251.423 69.8722C251.423 71.1896 250.215 72.1591 248.44 72.1591C246.879 72.1591 245.81 71.468 245.537 70.1705L246.65 69.892C246.859 70.7124 247.461 71.125 248.42 71.125C249.514 71.125 250.21 70.5881 250.21 69.9318C250.21 69.4048 249.847 69.0369 249.076 68.858L247.804 68.5597C246.402 68.2315 245.775 67.5256 245.775 66.4716C245.775 65.179 246.968 64.2642 248.579 64.2642C250.091 64.2642 250.916 64.9901 251.284 66.0739Z" fill="#4B5563"/>
<defs>
<linearGradient gradientUnits="userSpaceOnUse" id="paint0_linear_25219_10396" x1="12.4757" x2="33.0501" y1="33.9764" y2="8.88279">
<stop stop-color="#F5A722"/>
<stop offset="1" stop-color="#FED7AA"/>
</linearGradient>
<linearGradient gradientUnits="userSpaceOnUse" id="paint1_linear_25219_10396" x1="80.3922" x2="106.611" y1="36.556" y2="10.975">
<stop stop-color="#EC4899"/>
<stop offset="1" stop-color="#DBABFF"/>
</linearGradient>
<radialGradient cx="0" cy="0" gradientTransform="translate(146.058 42.6589) rotate(-53.1504) scale(31.4673)" gradientUnits="userSpaceOnUse" id="paint2_radial_25219_10396" r="1">
<stop stop-color="#6D4AFF"/>
<stop offset="1" stop-color="#34B8EE"/>
</radialGradient>
<radialGradient cx="0" cy="0" gradientTransform="translate(214.058 42.6589) rotate(-53.1504) scale(31.4673)" gradientUnits="userSpaceOnUse" id="paint3_radial_25219_10396" r="1">
<stop stop-color="#1B854C"/>
<stop offset="1" stop-color="#26DA79"/>
</radialGradient>
</defs>
</svg>